<?xml version="1.0" encoding="UTF-8"?>
<svg xmlns="http://www.w3.org/2000/svg" xml:space="preserve" width="21px" viewBox="0 0 512 512">
  <g fill="currentColor" color="#ccc">
    <path d="M459.31 447.122c-69.552 67.237-183.317 43.868-219.624-45.137-15.138-37.108-26.53-75.746-39.614-113.69-1.125-3.266-2.173-6.557-3.417-10.323H89.909c-6.622 19.38-13.262 38.819-19.972 58.455H0L105.06 26.072h95.918l61.683 179.884c55.82-49.045 117.389-56.783 182.961-26.092 36.874 17.258 56.235 49.98 66.378 89.804l-83.141 11.257c-3.798-10.414-6.384-20.37-10.916-29.342-9.472-18.75-25.329-28.141-46.455-27.642-21.421.506-36.168 11.763-42.622 31.465-15.028 45.875-15.292 92.32.48 138.04 7.324 21.227 24.121 31.112 45.27 30.468 24.038-.732 43.71-13.325 50.411-32.543 1.315-3.769 1.74-7.85 2.855-13.11H375.76v-53.81h133.835v153.864H484.7c-8.194-10.064-16.654-20.458-25.39-31.193zM144.614 109.575 109.93 212.92h66.453l-31.77-103.344zM20.187 477.625v-22.202h191.886v22.202H20.187z"></path>
    <path d="M265.06 55.33h190.776v22.667H265.06V55.33zM20.116 429.544v-21.387h191.819v21.387H20.115zm435.648-304.567H265.108v-21.715h190.656v21.715zm-243.8 257.993H56.763v-21.594h155.201v21.594z"></path>
  </g>
</svg>
